<?xml version="1.0" encoding="UTF-8" standalone="no"?>
<!-- Created with Inkscape (http://www.inkscape.org/) -->

<svg
   xmlns:dc="http://purl.org/dc/elements/1.1/"
   xmlns:cc="http://creativecommons.org/ns#"
   xmlns:rdf="http://www.w3.org/1999/02/22-rdf-syntax-ns#"
   xmlns:svg="http://www.w3.org/2000/svg"
   xmlns="http://www.w3.org/2000/svg"
   xmlns:sodipodi="http://sodipodi.sourceforge.net/DTD/sodipodi-0.dtd"
   xmlns:inkscape="http://www.inkscape.org/namespaces/inkscape"
   width="22"
   height="22"
   viewBox="0 0 22 22"
   id="svg3886"
   version="1.1"
   inkscape:version="0.91 r13725"
   sodipodi:docname="close.svg">
  <defs
     id="defs3888" />
  <sodipodi:namedview
     id="base"
     pagecolor="#ffffff"
     bordercolor="#666666"
     borderopacity="1.0"
     inkscape:pageopacity="0.0"
     inkscape:pageshadow="2"
     inkscape:zoom="5.6"
     inkscape:cx="22.142857"
     inkscape:cy="48.214272"
     inkscape:document-units="px"
     inkscape:current-layer="layer1"
     showgrid="false"
     units="px"
     inkscape:window-width="1920"
     inkscape:window-height="1137"
     inkscape:window-x="-8"
     inkscape:window-y="-8"
     inkscape:window-maximized="1" />
  <metadata
     id="metadata3891">
    <rdf:RDF>
      <cc:Work
         rdf:about="">
        <dc:format>image/svg+xml</dc:format>
        <dc:type
           rdf:resource="http://purl.org/dc/dcmitype/StillImage" />
        <dc:title></dc:title>
      </cc:Work>
    </rdf:RDF>
  </metadata>
  <g
     inkscape:label="Layer 1"
     inkscape:groupmode="layer"
     id="layer1"
     transform="translate(0,-1030.3622)">
    <path
       d="m 18.1,1034.2623 c -1.9,-1.8 -4.4,-2.9 -7.1,-2.9 -2.6999998,0 -5.1999998,1.0999 -7.0999998,2.9 -3.89999999375,3.8998 -3.89999999375,10.3998 0,14.1999 1.9,1.9 4.4,2.9 7.0999998,2.9 2.7,0 5.2,-1.1 7.1,-2.9 3.9,-3.8 3.9,-10.3 0,-14.1999 z m -0.9,13.3998 c -1.6,1.6 -3.9,2.6 -6.2,2.6 -2.2999998,0 -4.5999998,-0.9 -6.1999998,-2.6 -3.4,-3.4 -3.4,-8.9 0,-12.4999 1.6,-1.5999 3.9,-2.5999 6.1999998,-2.5999 2.3,0 4.6,0.9 6.2,2.5999 3.4,3.4999 3.4,9.0999 0,12.4999 z"
       id="path12"
       inkscape:connector-curvature="0"
       style="fill:#010202" />
    <path
       d="m 15.4,1037.7747 c 0,-0.2 -0.1,-0.3 -0.2,-0.4 -0.3,-0.2999 -0.6,-0.2999 -0.9,0 l -3.3,3.2 -3.2999998,-3.2999 c -0.3,-0.3 -0.6,-0.3 -0.9,0 -0.1,0.1 -0.2,0.2999 -0.2,0.3999 0,0.1 0.1,0.2999 0.2,0.4 l 3.2999998,3.3 -3.2999998,3.3 c -0.1,0.1 -0.2,0.2999 -0.2,0.4 0,0.1 0.1,0.3 0.2,0.4 0.1,0.1 0.3,0.2 0.4,0.2 0.1,0 0.3,-0.1 0.4,-0.2 l 3.2999998,-3.3 3.3,3.3 c 0.1,0.1 0.3,0.2 0.4,0.2 0.1,0 0.3,-0.1 0.4,-0.2 0.1,-0.1 0.2,-0.3 0.2,-0.4 0,-0.1 -0.1,-0.3 -0.2,-0.4 l -3.1,-3.2001 3.3,-3.2999 c 0.1,-0.1 0.2,-0.3 0.2,-0.4001 z"
       id="path14"
       inkscape:connector-curvature="0"
       style="fill:#010202" />
  </g>
</svg>
