<?xml version="1.0" encoding="utf-8"?>
<!-- Generator: Adobe Illustrator 19.2.1, SVG Export Plug-In . SVG Version: 6.00 Build 0)  -->
<svg version="1.1" id="Layer_1" xmlns="http://www.w3.org/2000/svg" xmlns:xlink="http://www.w3.org/1999/xlink" x="0px" y="0px"
	 width="45px" height="4020px" viewBox="0 0 45 4020" enable-background="new 0 0 45 4020" xml:space="preserve">
<g id="Layer_1_1_">
	<g id="hamburger">
		<path fill="#FFFFFF" d="M24.4,21.9H5.6c-0.4,0-0.6-0.3-0.6-0.6s0.3-0.6,0.6-0.6h18.7c0.4,0,0.6,0.3,0.6,0.6S24.7,21.9,24.4,21.9z"
			/>
		<path fill="#FFFFFF" d="M24.4,15.5H5.6c-0.4,0-0.6-0.3-0.6-0.6c0-0.4,0.3-0.6,0.6-0.6h18.7c0.4,0,0.6,0.3,0.6,0.6
			C25,15.3,24.7,15.5,24.4,15.5z"/>
		<path fill="#FFFFFF" d="M24.4,9.2H5.6C5.3,9.2,5,8.9,5,8.5s0.3-0.6,0.6-0.6h18.7c0.4,0,0.6,0.3,0.6,0.6C25,8.9,24.7,9.2,24.4,9.2z
			"/>
	</g>
	<g id="round_delete">
		<path fill="#010202" d="M22.1,57.9C20.2,56.1,17.7,55,15,55s-5.2,1.1-7.1,2.9C4,61.8,4,68.3,7.9,72.1C9.8,74,12.3,75,15,75
			s5.2-1.1,7.1-2.9C26,68.3,26,61.8,22.1,57.9z M21.2,71.3c-1.6,1.6-3.9,2.6-6.2,2.6s-4.6-0.9-6.2-2.6c-3.4-3.4-3.4-8.9,0-12.5
			c1.6-1.6,3.9-2.6,6.2-2.6s4.6,0.9,6.2,2.6C24.6,62.3,24.6,67.9,21.2,71.3z"/>
		<path fill="#010202" d="M19.4,61.3c0-0.2-0.1-0.3-0.2-0.4c-0.3-0.3-0.6-0.3-0.9,0L15,64.1l-3.3-3.3c-0.3-0.3-0.6-0.3-0.9,0
			c-0.1,0.1-0.2,0.3-0.2,0.4c0,0.1,0.1,0.3,0.2,0.4l3.3,3.3l-3.3,3.3c-0.1,0.1-0.2,0.3-0.2,0.4s0.1,0.3,0.2,0.4
			c0.1,0.1,0.3,0.2,0.4,0.2c0.1,0,0.3-0.1,0.4-0.2l3.3-3.3l3.3,3.3c0.1,0.1,0.3,0.2,0.4,0.2s0.3-0.1,0.4-0.2s0.2-0.3,0.2-0.4
			s-0.1-0.3-0.2-0.4L15.9,65l3.3-3.3C19.3,61.6,19.4,61.4,19.4,61.3z"/>
	</g>
	<g id="mini_bag_full">
		<path fill="#E51D9B" d="M25,174.2l-0.7-13.6c0-0.3-0.3-0.6-0.6-0.6h-3c-0.3-2.8-2.7-5-5.5-5s-5.2,2.2-5.5,5H6.5
			c-0.3,0-0.6,0.3-0.6,0.6L5,174.3c0,0.2,0.1,0.3,0.2,0.5s0.3,0.2,0.5,0.2h18.7l0,0c0.4,0,0.6-0.3,0.6-0.6
			C25,174.3,25,174.2,25,174.2z M15,156.2c2.2,0,3.9,1.6,4.3,3.8h-8.5C11.1,157.9,12.8,156.2,15,156.2z"/>
	</g>
	<g id="mini_bag_empty">
		<path fill="#FFFFFF" d="M25,222.2l-0.7-13.6c0-0.3-0.3-0.6-0.6-0.6h-3c-0.3-2.8-2.7-5-5.5-5s-5.2,2.2-5.5,5H6.5
			c-0.3,0-0.6,0.3-0.6,0.6L5,222.3c0,0.2,0.1,0.3,0.2,0.5s0.3,0.2,0.5,0.2h18.7l0,0c0.4,0,0.6-0.3,0.6-0.6
			C25,222.3,25,222.2,25,222.2z M15,204.2c2.2,0,3.9,1.6,4.3,3.8h-8.5C11.1,205.9,12.8,204.2,15,204.2z M6.4,221.7L7,209.3h16.1
			l0.6,12.4H6.4z"/>
	</g>
	<g id="logged_user">
		<path fill="#E51D9B" d="M15.4,255c1.9,0,3.1,0.6,3.9,1.9c0.7,1.3,1.2,2.4,1.3,3.4c0.2,1.2,0.1,2.3-0.2,3.7
			c-0.3,1.3-0.9,2.4-1.8,3.2c-0.3,0.2-0.4,0.4-0.4,0.5s0.2,0.3,0.4,0.4c0.1,0,0.5,0.2,1.3,0.4s1.7,0.5,2.5,0.9
			c0.7,0.3,1.3,0.7,1.8,1.3c0.4,0.6,0.7,1.3,0.7,2.1v2.2c-1.3,0-2.6,0-3.6,0s-2.2,0-3.3,0s-2.2,0-3.2,0s-2.1,0-3.2,0s-2.2,0-3.2,0
			s-2,0-3.3,0v-2.1c0-0.8,0.3-1.4,0.7-2.1c0.4-0.6,1.1-1.1,1.8-1.3c0.9-0.4,1.7-0.6,2.6-0.9c0.9-0.3,1.3-0.4,1.4-0.5
			c0.3-0.2,0.4-0.3,0.4-0.4c0-0.2-0.1-0.4-0.4-0.5c-0.9-0.8-1.5-1.9-1.8-3.2c-0.3-1.3-0.4-2.5-0.2-3.7c0.2-1,0.6-2.1,1.3-3.3
			c0.7-1.2,2.3-2,4.2-2H15.4z"/>
	</g>
	<g id="soft_logged_user">
		<path fill="#F5A5D7" d="M15.4,305c1.9,0,3.1,0.6,3.9,1.9c0.7,1.3,1.2,2.4,1.3,3.4c0.2,1.2,0.1,2.3-0.2,3.7
			c-0.3,1.3-0.9,2.4-1.8,3.2c-0.3,0.2-0.4,0.4-0.4,0.5s0.2,0.3,0.4,0.4c0.1,0,0.5,0.2,1.3,0.4s1.7,0.5,2.5,0.9
			c0.7,0.3,1.3,0.7,1.8,1.3c0.4,0.6,0.7,1.3,0.7,2.1v2.2c-1.3,0-2.6,0-3.6,0s-2.2,0-3.3,0s-2.2,0-3.2,0s-2.1,0-3.2,0s-2.2,0-3.2,0
			s-2,0-3.3,0v-2.1c0-0.8,0.3-1.4,0.7-2.1c0.4-0.6,1.1-1.1,1.8-1.3c0.9-0.4,1.7-0.6,2.6-0.9c0.9-0.3,1.3-0.4,1.4-0.5
			c0.3-0.2,0.4-0.3,0.4-0.4c0-0.2-0.1-0.4-0.4-0.5c-0.9-0.8-1.5-1.9-1.8-3.2c-0.3-1.3-0.4-2.5-0.2-3.7c0.2-1,0.6-2.1,1.3-3.3
			c0.7-1.2,2.3-2,4.2-2H15.4z"/>
	</g>
	<g id="guest_user">
		<path fill="#FFFFFF" d="M15.4,356.4c1.5,0,3.4,0.7,3.9,4c0.3,1.9-0.1,4.4-1.5,5.6c-0.6,0.5-0.9,1.1-0.8,1.8
			c0.1,0.4,0.3,1.1,1.1,1.6c0.1,0.1,0.4,0.2,4.1,1.5c0.9,0.3,1.5,1.1,1.5,2v0.7h-8.8c-2.8,0-6.4,0-8.4,0v-0.8c0-0.9,0.6-1.7,1.5-2
			c3.9-1.4,4.1-1.4,4.3-1.5c0.9-0.5,1.1-1.1,1.1-1.6c0.1-0.6-0.2-1.2-0.8-1.8c-1.4-1.3-1.8-3.8-1.5-5.6c0.5-3.2,2.4-3.9,3.9-3.9
			L15.4,356.4 M15.4,355h-0.5c-3.8,0-4.9,3.2-5.3,5.2c-0.4,2.2,0.1,5.2,2,6.9c0.5,0.4,0.4,0.7-0.1,1c-0.2,0.1-2.3,0.8-4,1.4
			C6,370,5,371.4,5,372.9v2.1c0,0,5.9,0,9.9,0c3.9,0,10.1,0,10.1,0v-2.1c0-1.5-1-2.9-2.4-3.4c-1.7-0.6-3.7-1.3-3.9-1.4
			c-0.5-0.3-0.6-0.6-0.1-1c1.9-1.6,2.4-4.6,2-6.9C20.3,358.2,19.1,355,15.4,355L15.4,355z"/>
	</g>
	<g id="search_black">
		<path fill="none" d="M12.3,406.3c-3.3,0-6,2.7-6,6.1s2.7,6.1,6,6.1s6-2.7,6-6.1S15.6,406.3,12.3,406.3z"/>
		<path fill="#010202" d="M12.3,405c-4.1,0-7.3,3.3-7.3,7.5s3.3,7.5,7.3,7.5s7.3-3.3,7.3-7.5S16.3,405,12.3,405z M12.3,418.6
			c-3.3,0-6-2.7-6-6.1s2.7-6.1,6-6.1s6,2.7,6,6.1S15.6,418.6,12.3,418.6z"/>
		<path fill="#010202" d="M24.8,423.9l-5.2-5.3c-0.3-0.3-0.7-0.3-0.9,0c-0.2,0.3-0.3,0.7,0,0.9l5.2,5.3c0.1,0.1,0.3,0.2,0.5,0.2
			s0.3-0.1,0.5-0.2C25.1,424.5,25.1,424.1,24.8,423.9z"/>
	</g>
	<g id="search_white_1_">
		<path fill="none" stroke="#FFFFFF" stroke-miterlimit="10" d="M12.3,456.3c-3.3,0-6,2.7-6,6.1s2.7,6.1,6,6.1s6-2.7,6-6.1
			S15.6,456.3,12.3,456.3z"/>
		<path fill="#FFFFFF" d="M12.3,455c-4.1,0-7.3,3.3-7.3,7.5s3.3,7.5,7.3,7.5s7.3-3.3,7.3-7.5S16.3,455,12.3,455z M12.3,468.6
			c-3.3,0-6-2.7-6-6.1s2.7-6.1,6-6.1s6,2.7,6,6.1S15.6,468.6,12.3,468.6z"/>
		<path fill="#FFFFFF" d="M24.8,473.9l-5.2-5.3c-0.3-0.3-0.7-0.3-0.9,0c-0.2,0.3-0.3,0.7,0,0.9l5.2,5.3c0.1,0.1,0.3,0.2,0.5,0.2
			s0.3-0.1,0.5-0.2C25.1,474.5,25.1,474.1,24.8,473.9z"/>
	</g>
	<g id="info_icon">
		<path d="M15,505c-5.5,0-10,4.5-10,10s4.5,10,10,10s10-4.5,10-10S20.5,505,15,505z M15,523.7c-4.8,0-8.7-3.9-8.7-8.7
			s3.9-8.7,8.7-8.7s8.7,3.9,8.7,8.7C23.7,519.8,19.8,523.7,15,523.7z"/>
		<path d="M15.7,511.5h-1.3c-0.4,0-0.7,0.3-0.7,0.7s0.3,0.7,0.7,0.7H15v7.2c0,0.4,0.3,0.7,0.7,0.7c0.4,0,0.7-0.3,0.7-0.7v-7.9
			C16.3,511.8,16,511.5,15.7,511.5z"/>
		<ellipse cx="15.1" cy="509.8" rx="0.8" ry="0.8"/>
	</g>
	<g id="tick">
		<polygon fill="#DD1593" points="19,960 13.2,965.8 10.6,963.2 10,963.8 12.6,966.4 13.2,967 13.8,966.4 19.6,960.6 		"/>
	</g>
	<g>
		<rect x="8.4" y="1014.2" transform="matrix(0.7072 -0.707 0.707 0.7072 -713.1945 307.544)" width="12.6" height="1.3"/>
		<rect x="8.4" y="1014.2" transform="matrix(0.7072 -0.707 0.707 0.7072 -713.1945 307.544)" width="12.6" height="1.3"/>
		<rect x="14.2" y="1008.7" transform="matrix(0.7069 -0.7073 0.7073 0.7069 -713.5497 307.9894)" width="1.3" height="12.6"/>
	</g>
	<g>
		<rect x="6.5" y="2164.1" transform="matrix(0.7072 -0.707 0.707 0.7072 -1526.277 644.3833)" width="16.7" height="1.7"/>
		<rect x="6.5" y="2164.1" transform="matrix(0.7072 -0.707 0.707 0.7072 -1526.277 644.3833)" width="16.7" height="1.7"/>
		<rect x="14.3" y="2156.6" transform="matrix(0.7069 -0.7073 0.7073 0.7069 -1526.8301 645.2534)" width="1.7" height="16.7"/>
	</g>
	<g id="back">
		<polygon points="15,1070 10,1065 15,1060 15.7,1060.7 11.3,1065 15.7,1069.3 		"/>
		<polygon points="13.7,2070 18.7,2065 13.7,2060 13,2060.7 17.3,2065 13,2069.3 		"/>
	</g>
	<g id="down">
		<polygon points="20,910.7 15,915.7 10,910.7 10.7,910 15,914.3 19.3,910 		"/>
		<polygon fill="#EFEFEF" points="26,1911.3 16,1921 6,1911.3 7.3,1910 16,1918.4 24.7,1910 		"/>
		<polygon points="26,1861.3 16,1871 6,1861.3 7.3,1860 16,1868.4 24.7,1860 		"/>
		<polygon fill="#EFEFEF" points="6,1969.7 16,1960 26,1969.7 24.7,1971 16,1962.6 7.3,1971 		"/>
		<polygon points="6,2019.7 16,2010 26,2019.7 24.7,2021 16,2012.6 7.3,2021 		"/>
	</g>
	<g id="forward">
		<polygon fill="#B3B3B3" points="10.7,870 15.7,865 10.7,860 10,860.7 14.3,865 10,869.3 		"/>
		<polygon fill="#B3B3B3" points="15,1120 10,1115 15,1110 15.7,1110.7 11.3,1115 15.7,1119.3 		"/>
		<polygon fill="#B3B3B3" points="11.2,1224 20,1214 11.2,1204 10,1205.3 17.7,1214 10,1222.7 		"/>
		<polygon fill="#231F20" points="11.2,1275 20,1265 11.2,1255 10,1256.3 17.7,1265 10,1273.7 		"/>
		<polygon fill="#B3B3B3" points="18.8,1325 10,1315 18.8,1305 20,1306.3 12.3,1315 20,1323.7 		"/>
		<polygon fill="#231F20" points="18.8,1375 10,1365 18.8,1355 20,1356.3 12.3,1365 20,1373.7 		"/>
		<g>
			<polygon fill="#231F20" points="15,1416.4 0.7,1430.7 -0.7,1429.3 13.6,1415 -0.7,1400.7 0.7,1399.3 15,1413.6 29.3,1399.3 
				30.7,1400.7 16.4,1415 30.7,1429.3 29.3,1430.7 			"/>
			<path fill="#FFFFFF" d="M29.3,1400l0.7,0.7L15.7,1415l14.3,14.3l-0.7,0.7L15,1415.7L0.7,1430l-0.7-0.7l14.3-14.3L0,1400.7
				l0.7-0.7l14.3,14.3L29.3,1400 M29.3,1398.6l-0.7,0.7L15,1412.9l-13.6-13.6l-0.7-0.7l-0.7,0.7l-0.7,0.7l-0.7,0.7l0.7,0.7
				l13.6,13.6l-13.6,13.6l-0.7,0.7l0.7,0.7l0.7,0.7l0.7,0.7l0.7-0.7l13.6-13.6l13.6,13.6l0.7,0.7l0.7-0.7l0.7-0.7l0.7-0.7l-0.7-0.7
				L17.1,1415l13.6-13.6l0.7-0.7l-0.7-0.7l-0.7-0.7L29.3,1398.6L29.3,1398.6z"/>
		</g>
		<g>
			<polygon fill="#CCCCCC" points="30,2100.7 29.3,2100 15,2114.3 0.7,2100 0,2100.7 14.3,2115 0,2129.3 0.7,2130 15,2115.7 
				29.3,2130 30,2129.3 15.7,2115 			"/>
		</g>
	</g>
	<g id="forward_-_white">
		<rect y="800" display="none" fill="#E51D9B" width="30" height="30"/>
		<polygon fill="#FFFFFF" points="10.7,820 15.7,815 10.7,810 10,810.7 14.3,815 10,819.3 		"/>
	</g>
	<g id="minimise">
		<g>
			<rect x="10" y="765" width="10" height="1"/>
			<rect x="10" y="765" width="10" height="1"/>
		</g>
	</g>
	<g id="minimise_-_white">
		<rect y="700" display="none" fill="#E51D9B" width="30" height="30"/>
		<g>
			<rect x="10" y="714.4" fill="#FFFFFF" width="10" height="1"/>
			<rect x="10" y="714.4" fill="#FFFFFF" width="10" height="1"/>
		</g>
	</g>
	<g id="maximise">
		<g>
			<rect x="10" y="664.5" width="10" height="1"/>
			<rect x="10" y="664.5" width="10" height="1"/>
			<rect x="14.5" y="660" width="1" height="10"/>
		</g>
	</g>
	<g id="maximise_grey">
		<g>
			<rect x="10" y="614.5" fill="#666666" width="10" height="1"/>
			<rect x="10" y="614.5" fill="#666666" width="10" height="1"/>
			<rect x="14.5" y="610" fill="#666666" width="1" height="10"/>
		</g>
	</g>
	<g id="maximise_-_white">
		<rect y="550" display="none" fill="#E51D9B" width="30" height="30"/>
		<g>
			<rect x="10" y="564.4" fill="#FFFFFF" width="10" height="1"/>
			<rect x="10" y="564.4" fill="#FFFFFF" width="10" height="1"/>
			<rect x="14.5" y="559.9" fill="#FFFFFF" width="1" height="10"/>
		</g>
	</g>
	<g id="search">
		<g>
			<path d="M16.7,119.7c-4.1,0-7.4-3.3-7.4-7.4s3.3-7.4,7.4-7.4s7.4,3.3,7.4,7.4C24,116.4,20.7,119.7,16.7,119.7z M16.7,107.7
				c-2.6,0-4.6,2.1-4.6,4.7s2.1,4.7,4.6,4.7s4.6-2.1,4.6-4.7S19.2,107.7,16.7,107.7z"/>
			<path d="M7.3,123c-0.3,0-0.7-0.1-1-0.4c-0.5-0.5-0.5-1.4,0-1.9l3.9-3.9c0.5-0.5,1.4-0.5,1.9,0s0.5,1.4,0,1.9l-3.9,3.9
				C8,122.9,7.7,123,7.3,123z"/>
		</g>
		<g>
			<g>
				<path fill="#202020" d="M21.6,1159.6H20c0,0,0-5.6-4.9-5.6c-4.8,0-4.9,5.6-4.9,5.6H8.5L6.9,1172H23L21.6,1159.6z M11.8,1159.6
					c0,0,0-4,3.3-4s3.3,4,3.3,4H11.8z"/>
			</g>
		</g>
		<g>
			<path fill="#FFFFFF" d="M12.5,1165.4c0-1.1,0.2-2,0.7-2.6c0.4-0.7,1.1-1,1.8-1c0.8,0,1.4,0.3,1.8,0.9s0.6,1.6,0.6,3
				c0,1.2-0.2,2.2-0.6,2.9s-1,1-1.8,1s-1.4-0.3-1.8-0.8C12.7,1168.1,12.5,1167,12.5,1165.4z M13.5,1165.5c0,2.1,0.4,3.1,1.3,3.1
				c0.5,0,0.9-0.2,1.1-0.7c0.2-0.5,0.4-1.3,0.4-2.4c0-0.8,0-1.4-0.1-1.8s-0.2-0.7-0.4-0.8s-0.5-0.3-0.8-0.3
				C14,1162.6,13.5,1163.6,13.5,1165.5z"/>
		</g>
		<path d="M6,1463.4c0-4.1,3.3-7.4,7.4-7.4s7.4,3.3,7.4,7.4s-3.3,7.4-7.4,7.4S6,1467.4,6,1463.4z M8.7,1463.4c0,2.6,2.1,4.7,4.7,4.7
			s4.6-2.1,4.6-4.7s-2.1-4.7-4.6-4.7C10.8,1458.7,8.7,1460.8,8.7,1463.4z"/>
		<path d="M22.6,1474c0.3,0,0.7-0.1,1-0.4c0.5-0.5,0.5-1.4,0-1.9l-3.9-3.9c-0.5-0.5-1.4-0.5-1.9,0s-0.5,1.4,0,1.9l3.9,3.9
			C22,1473.9,22.3,1474,22.6,1474z"/>
		<g>
			<path fill="#231F20" d="M6,1762.3c0-4.1,3.3-7.3,7.4-7.3s7.4,3.3,7.4,7.3c0,4.1-3.3,7.4-7.4,7.4S6,1766.4,6,1762.3 M8.7,1762.3
				c0,2.6,2.1,4.7,4.7,4.7s4.7-2.1,4.7-4.7s-2.1-4.7-4.7-4.7C10.8,1757.7,8.7,1759.8,8.7,1762.3z"/>
			<path fill="#231F20" d="M22.7,1773c0.3,0,0.7-0.1,1-0.4c0.5-0.5,0.5-1.4,0-1.9l-3.9-3.9c-0.5-0.5-1.4-0.5-1.9,0s-0.5,1.4,0,1.9
				l3.9,3.9C22,1772.9,22.3,1773,22.7,1773"/>
		</g>
		<g>
			<path fill="#FFFFFF" d="M8.7,1762.3c0,2.6,2.1,4.7,4.7,4.7s4.7-2.1,4.7-4.7s-2.1-4.7-4.6-4.7S8.7,1759.8,8.7,1762.3z"/>
		</g>
		<rect x="10.3" y="1762" width="6" height="0.6"/>
		<rect x="10.3" y="1762" width="6" height="0.6"/>
		<polyline points="13.6,1759.3 13.6,1765.3 13.1,1765.3 13,1759.3 13.6,1759.3 		"/>
		<g>
			<path fill="#231F20" d="M6,1812.3c0-4.1,3.3-7.3,7.3-7.3c4.1,0,7.4,3.3,7.4,7.3s-3.3,7.3-7.4,7.3C9.3,1819.7,6,1816.4,6,1812.3
				 M8.7,1812.3c0,2.6,2.1,4.7,4.6,4.7c2.6,0,4.6-2.1,4.6-4.7s-2.1-4.7-4.6-4.7C10.8,1807.7,8.7,1809.8,8.7,1812.3z"/>
			<path fill="#231F20" d="M22.6,1823c0.3,0,0.7-0.1,1-0.4c0.5-0.5,0.5-1.4,0-1.9l-3.9-3.9c-0.5-0.5-1.4-0.5-1.9,0s-0.5,1.4,0,1.9
				l3.9,3.9C22,1822.9,22.3,1823,22.6,1823"/>
		</g>
		<g>
			<path fill="#FFFFFF" d="M8.7,1812.3c0,2.6,2.1,4.7,4.7,4.7s4.6-2.1,4.6-4.7s-2.1-4.7-4.6-4.7C10.8,1807.7,8.7,1809.8,8.7,1812.3z
				"/>
		</g>
		<rect x="10.4" y="1812" width="6" height="0.6"/>
		<g>
			<rect x="8.2" y="2207" fill="#202020" width="19.6" height="1.8"/>
			<rect x="8.2" y="2214.2" fill="#202020" width="19.6" height="1.8"/>
			<rect x="8.2" y="2221.2" fill="#202020" width="19.6" height="1.8"/>
		</g>
		<g>
			<rect x="5" y="2207" fill="#202020" width="1.6" height="1.8"/>
			<rect x="5" y="2214.2" fill="#202020" width="1.6" height="1.8"/>
			<rect x="5" y="2221.2" fill="#202020" width="1.6" height="1.8"/>
		</g>
	</g>
	<g id="dept_x2F_brand_icons_-selected">
		<rect display="none" fill="#EFEFEF" width="30" height="30"/>
		<g>
			<rect y="1500" fill="#EEEEEE" width="30" height="30"/>
			<path d="M18.2,1526.8v-9.8h-2.6v-3.5h2.6c0,0,0-1.4,0-3c0-2.4,1.5-4.5,5.1-4.5c1.4,0,2.5,0.1,2.5,0.1l-0.1,3.3c0,0-1.1,0-2.3,0
				c-1.3,0-1.5,0.6-1.5,1.6c0,0.8,0-1.6,0,2.6h3.8l-0.2,3.5h-3.7v9.8L18.2,1526.8L18.2,1526.8z"/>
		</g>
		<g>
			<rect y="1550" fill="#EEEEEE" width="30" height="30"/>
			<path d="M24.7,1559.6c-0.7,0.3-1.4,0.5-2.2,0.6c0.8-0.5,1.4-1.2,1.7-2.1c-0.7,0.4-1.6,0.8-2.5,0.9c-0.7-0.8-1.7-1.2-2.8-1.2
				c-2.1,0-3.9,1.7-3.9,3.9c0,0.3,0,0.6,0.1,0.9c-3.2-0.2-6.1-1.7-8-4c-0.3,0.6-0.5,1.2-0.5,1.9c0,1.3,0.7,2.5,1.7,3.2
				c-0.6,0-1.2-0.2-1.7-0.5c0,0,0,0,0,0.1c0,1.9,1.3,3.4,3.1,3.8c-0.3,0.1-0.7,0.1-1,0.1s-0.5,0-0.7-0.1c0.5,1.5,1.9,2.7,3.6,2.7
				c-1.3,1-3,1.6-4.8,1.6c-0.3,0-0.6,0-0.9-0.1c1.7,1.1,3.7,1.7,5.9,1.7c7.1,0,11-5.9,11-11c0-0.2,0-0.3,0-0.5
				C23.5,1561.1,24.2,1560.4,24.7,1559.6z"/>
		</g>
		<rect x="0.1" y="1600" fill="#EEEEEE" width="29.9" height="29.9"/>
		<polygon id="_x2B__6_" points="20,1605.1 22.1,1605.1 22.1,1610.1 27.1,1610.1 27.1,1612.2 22.1,1612.2 22.1,1617.2 20,1617.2 
			20,1612.2 15,1612.2 15,1610.1 20,1610.1 		"/>
		<path d="M11.3,1622.2l-1.4-1.1c-0.4-0.4-1-0.8-1-1.7c0-0.9,0.6-1.4,1.1-1.9c1.7-1.3,3.2-2.7,3.2-5.6c0-2.7-1.4-4.2-2.4-5
			c0.3,0,2.4,0,2.4,0l2.2-1.8H7.1c-2.1,0-4.5,0.3-6.8,2.2c-0.1,0.1-0.2,0.2-0.3,0.3v9.6c1.1,0.9,2.5,1.6,4.3,1.6
			c0.4,0,0.8,0,1.3-0.1c-0.2,0.5-0.4,0.9-0.4,1.5c0,1.2,0.6,2,1.2,2.7c-1.5,0.1-4.6-0.1-6.4,1.3v2.3c0.8-1.1,2.1-1.6,2.7-1.8
			c1.6-0.5,3.8-0.6,4.1-0.6c0.4,0,0.6,0,0.9,0c3,2.1,5.1,3.2,5.2,5.2c0,0.4-0.1,0.5-0.2,0.7H15c0.2-0.6,0.3-1.2,0.3-1.9
			C15.3,1625.3,13.1,1623.7,11.3,1622.2z M6.3,1617.2c-3.4,0-4.8-3.9-4.8-6.6c0-1,0.1-2.1,0.8-2.9c0.6-0.8,1.7-1.3,2.8-1.3
			c3.3,0,4.9,4.4,4.9,7.3c0,0.6-0.3,1.7-1,2.5C8.3,1616.9,7.3,1617.2,6.3,1617.2z"/>
		<rect y="1650" fill="#EEEEEE" width="30" height="30"/>
		<g>
			<path d="M15.2,1655.9c-5.2,0-9.4,4.2-9.4,9.4c0,3.9,2.3,7.2,5.7,8.6c0-0.7,0-1.5,0.2-2.2c0.2-0.8,1.2-5.1,1.2-5.1
				s-0.3-0.6-0.3-1.5c0-1.4,0.8-2.4,1.8-2.4c0.9,0,1.3,0.6,1.3,1.4c0,0.9-0.5,2.2-0.8,3.4c-0.2,1,0.5,1.8,1.5,1.8c1.8,0,3-2.3,3-5
				c0-2.1-1.4-3.6-3.9-3.6c-2.9,0-4.6,2.1-4.6,4.5c0,0.8,0.2,1.4,0.6,1.9c0.2,0.2,0.2,0.3,0.1,0.5c0,0.2-0.1,0.6-0.2,0.8
				c-0.1,0.2-0.3,0.3-0.5,0.2c-1.3-0.5-1.9-2-1.9-3.6c0-2.7,2.3-5.9,6.8-5.9c3.6,0,6,2.6,6,5.4c0,3.7-2.1,6.5-5.1,6.5
				c-1,0-2-0.6-2.3-1.2c0,0-0.6,2.2-0.7,2.6c-0.2,0.7-0.6,1.5-1,2c0.9,0.2,1.7,0.4,2.7,0.4c5.2,0,9.4-4.2,9.4-9.4
				S20.5,1655.9,15.2,1655.9z"/>
		</g>
		<rect y="1700" fill="#EEEEEE" width="30" height="30"/>
		<g>
			<path fill="#EEEEEE" stroke="#000000" stroke-width="1.5" stroke-miterlimit="10" d="M24.8,1720.9c0,0.4-0.3,0.7-0.7,0.7H6.3
				c-0.4,0-0.7-0.3-0.7-0.7V1709c0-0.4,0.3-0.7,0.7-0.7h17.9c0.4,0,0.7,0.3,0.7,0.7v11.9H24.8z"/>
		</g>
		<line fill="none" stroke="#000000" stroke-width="0.75" stroke-miterlimit="10" x1="17.2" y1="1713.8" x2="24.8" y2="1721.4"/>
		<line fill="none" stroke="#000000" stroke-width="0.75" stroke-miterlimit="10" x1="13.3" y1="1714.2" x2="5.8" y2="1721.8"/>
		<path fill="#FFFFFF" stroke="#000000" stroke-width="1.0328" stroke-miterlimit="10" d="M13.4,1713.9"/>
		
			<polyline fill="#EEEEEE" stroke="#000000" stroke-width="0.75" stroke-linecap="round" stroke-linejoin="round" stroke-miterlimit="10" points="
			24.8,1708.9 15.3,1715.2 15.3,1715.2 5.8,1708.9 		"/>
	</g>
	<g id="search_white">
		<g>
			<path fill="#FFFFFF" d="M16.7,2270.7c-4.1,0-7.4-3.3-7.4-7.4c0-4.1,3.3-7.4,7.4-7.4s7.4,3.3,7.4,7.4
				C24,2267.4,20.7,2270.7,16.7,2270.7z M16.7,2258.7c-2.6,0-4.6,2.1-4.6,4.7s2.1,4.6,4.6,4.6s4.6-2.1,4.6-4.6
				S19.2,2258.7,16.7,2258.7z"/>
			<path fill="#FFFFFF" d="M7.3,2274c-0.3,0-0.7-0.1-1-0.4c-0.5-0.5-0.5-1.4,0-1.9l3.9-3.9c0.5-0.5,1.4-0.5,1.9,0s0.5,1.4,0,1.9
				l-3.9,3.9C8,2273.9,7.7,2274,7.3,2274z"/>
		</g>
		<g>
			<path fill="#000100" d="M7.5,2455.1l-2.4-1.3L5,2454l15.1,8.4v5.9h0.3v-6c0,0,0-0.1-0.1-0.1l-5.3-2.9"/>
			<path fill="#000100" d="M14.6,2459l-6.7-3.7"/>
			<path fill="#000100" d="M25.7,2450.9c0,0-0.1,0-1.1,0.1l-19.1,1.3c-1.1,0.1-1.1,0.1-1.1,0.1c-0.2,0-0.3,0-0.5,0.1
				c-0.5,0.2-0.8,0.7-0.8,1.2v15.9c0,0.5,0.3,0.9,0.7,1.1l15.7,8.3c0.2,0.1,0.4,0.1,0.6,0.1s0.5-0.1,0.7-0.2
				c0.4-0.2,0.6-0.7,0.6-1.1v-7.5c0.9-0.2,2.3-0.4,4.6-0.9c0.6-0.1,1-0.6,1-1.3v-15.9c0-0.4-0.1-0.7-0.4-0.9
				C26.4,2451.1,26,2450.9,25.7,2450.9z M25.9,2452v16.2l0,0l-5.8,1.1v8.8L4,2469.7v-16.2l0,0"/>
		</g>
		<path fill="#000100" d="M27.4,2324.4c-1.1-3-3-3.7-4.6-4c-1.3-0.2-2.9-0.7-3.5-1c0-0.3,0-0.8,0-1.6l0.1-0.1l0,0
			c0.8-1,1.1-2,1.3-2.6c0.5-0.3,1-1,1.3-2.3c0.2-0.8,0.3-1.7-0.2-2.4l0,0c0.5-4.8-2.6-7.2-4.4-7.8l0,0l0,0c-0.7-0.2-1.3-0.3-1.9-0.3
			c-0.1,0-0.3,0-0.4,0c-0.1,0-0.3,0-0.4,0c-0.6,0-1.3,0.1-1.9,0.3l0,0l0,0c-1.8,0.6-4.9,3.1-4.4,7.8l0,0c-0.5,0.7-0.4,1.6-0.2,2.4
			c0.3,1.3,0.8,2,1.3,2.3c0.2,0.6,0.5,1.6,1.3,2.6l0,0l0,0c0,0.1,0.1,0.1,0.1,0.2c0,0.8,0,1.3,0,1.6c-0.6,0.3-2.2,0.8-3.5,1
			c-1.5,0.3-3.5,1-4.6,4c-0.2,0.5-0.1,1.1,0.2,1.5c1.2,1.7,7.3,2,12.2,2s11-0.4,12.2-2C27.5,2325.4,27.6,2324.9,27.4,2324.4z
			 M10.3,2314.1c-0.2,0-0.8-0.1-1.2-1.7c-0.3-1.3,0-1.5,0.2-1.5c0.1,0,0.2,0,0.2,0c-1.1-5.8,3.4-7.4,3.4-7.4
			c0.6-0.2,1.2-0.3,1.6-0.3c0.1,0,0.3,0,0.4,0c0.1,0,0.3,0,0.4,0c0.4,0,1,0.1,1.6,0.3c0,0,4.6,1.6,3.4,7.4c0,0,0.1,0,0.2,0
			c0.2,0,0.5,0.2,0.2,1.5c-0.4,1.6-1,1.7-1.2,1.7l0,0c0,0-0.1,1.5-1.5,3.1l0,0c-1.1,1.1-2.2,1.6-3.3,1.6c-1.4-0.1-2.5-1-3-1.6l0,0
			C10.4,2315.7,10.3,2314.1,10.3,2314.1L10.3,2314.1z M15,2326.7c-5.9,0-11.7-0.6-11.2-1.9c0.9-2.5,2.4-3,3.6-3.2s4.1-0.9,4.4-1.6
			c0.1-0.2,0.1-0.6,0.1-1c0.7,0.5,1.7,1.1,2.9,1.1c0.1,0,0.1,0,0.2,0c1.1,0,2.1-0.4,3.1-1.2c0,0.4,0,0.8,0.1,1.1
			c0.3,0.7,3.2,1.4,4.4,1.6c1.2,0.2,2.7,0.7,3.6,3.2C26.7,2326.1,20.9,2326.7,15,2326.7z"/>
		<g id="Your_Icon_5_">
			<g>
				<path fill="none" stroke="#000100" stroke-miterlimit="10" d="M28,2406.3H14.2H2c-1,0-1,1.1-1,1.1v1.4h28v-1.4
					C29,2407.4,29,2406.3,28,2406.3z"/>
				<path fill="none" stroke="#000100" stroke-miterlimit="10" d="M1,2422.6c0,0,0,1.1,1,1.1h26c1,0,1-1.1,1-1.1v-11H1V2422.6z"/>
			</g>
			<rect x="1" y="2408.8" fill="#000100" stroke="#000100" stroke-miterlimit="10" width="28" height="2.8"/>
		</g>
		<g>
			<path fill="none" stroke="#000100" stroke-miterlimit="10" d="M21.6,2357.5v12.7h-9.4c-0.2-1.2-1.2-2.1-2.4-2.1s-2.2,0.9-2.4,2.1
				H4.5v-12.7H21.6z"/>
			<path fill="#221E20" d="M9.7,2369.3c0.9,0,1.6,0.7,1.6,1.6c0,0.9-0.7,1.6-1.6,1.6c-0.9,0-1.6-0.7-1.6-1.6
				C8.1,2370,8.8,2369.3,9.7,2369.3z"/>
			<path fill="#000100" d="M26.4,2369.3c0.9,0,1.6,0.7,1.6,1.6c0,0.9-0.7,1.6-1.6,1.6s-1.6-0.7-1.6-1.6
				C24.9,2370,25.6,2369.3,26.4,2369.3z"/>
			<rect y="2359.6" fill="#000100" width="3.5" height="0.7"/>
			<rect y="2363.1" fill="#000100" width="3.5" height="0.7"/>
			<rect y="2366.7" fill="#000100" width="3.5" height="0.7"/>
			<path fill="none" stroke="#000100" stroke-width="0.3" stroke-miterlimit="10" d="M28.7,2364.2h-4.3v-2.2H27
				c1.4,0,1.7,0.8,1.7,1.7V2364.2z"/>
			<path fill="none" stroke="#000100" stroke-miterlimit="10" d="M27.6,2361H23v9.2h1.1c0.2-1.2,1.2-2.1,2.4-2.1
				c1.2,0,2.2,0.9,2.4,2.1H30v-6.7C30,2362.1,28.9,2361,27.6,2361z"/>
		</g>
		<g>
			<circle fill="#BCBEC0" cx="15" cy="2515" r="8.5"/>
			<g>
				<path fill="#FFFFFF" stroke="#EFEFEF" stroke-miterlimit="10" d="M10.8,2519.2l-0.3-0.3l3.8-3.8l-3.8-3.8l0.3-0.3l3.8,3.8
					l3.8-3.8l0.3,0.3l-3.8,3.8l3.8,3.8l-0.3,0.3l-3.8-3.8L10.8,2519.2z"/>
			</g>
		</g>
	</g>
	<g id="storestock_active">
		<circle fill="#EFEFEF" cx="15" cy="2565" r="15"/>
		<rect x="6.7" y="2561.1" width="5.9" height="12"/>
		<rect x="17.5" y="2561.1" width="5.9" height="12"/>
		<rect x="6.7" y="2561.1" width="16.7" height="5.8"/>
		<rect x="6.7" y="2557" fill="#E51D9B" width="16.7" height="3.1"/>
	</g>
	<g id="storestock_inactive">
		<circle fill="#EFEFEF" cx="15" cy="2615" r="15"/>
		<rect x="6.7" y="2611.1" fill="#CCCCCC" width="5.9" height="12"/>
		<rect x="17.5" y="2611.1" fill="#CCCCCC" width="5.9" height="12"/>
		<rect x="6.7" y="2611.1" fill="#CCCCCC" width="16.7" height="5.8"/>
		<rect x="6.7" y="2607" fill="#FBD1EB" width="16.7" height="3.1"/>
	</g>
	<g id="sfl_active">
		<circle fill="#EFEFEF" cx="15" cy="2665" r="15"/>
		<path fill="#E51D9B" d="M15.1,2674.9c-3.8-1.8-8.7-4.8-9.9-9.9c-0.6-2.7,0.2-5.3,2.3-6.8c1.7-1.2,5.6-1.3,7.3,1.2
			c1.8-2.8,5.8-2.3,7.5-1.2c1.7,0.8,3.7,4.3,2,7.3C22.7,2669.8,18.3,2673.4,15.1,2674.9z"/>
	</g>
	<g id="sfl_inctive">
		<circle fill="#EFEFEF" cx="15" cy="2715" r="15"/>
		<path fill="#FBD1EB" d="M15.1,2724.9c-3.8-1.8-8.7-4.8-9.9-9.9c-0.6-2.7,0.2-5.3,2.3-6.8c1.7-1.2,5.6-1.3,7.3,1.2
			c1.8-2.8,5.8-2.3,7.5-1.2c1.7,0.8,3.7,4.3,2,7.3C22.7,2719.8,18.3,2723.4,15.1,2724.9z"/>
	</g>
	<polygon id="sfl_tick" points="8.5,2753.7 10.4,2751.7 13.1,2754.5 18.6,2748.8 20.5,2750.7 12.8,2758.8 	"/>
	<g>
		<path fill="none" stroke="#CCCCCC" stroke-miterlimit="10" d="M8.5,2770"/>
		<polyline fill="none" stroke="#CCCCCC" stroke-miterlimit="10" points="23.5,2770 16,2777 8.5,2770 		"/>
	</g>
	<g id="larger_x_circle">
		<g>
			<g>
				<g>
					<g>
						<g>
							<g>
								<g>
									<g>
										<g>
											<g>
												<g>
													<defs>
														<polygon id="SVGID_1_" points="11,2806 9,2804 13,2800 9,2796 11,2794 15,2798 19,2794 21,2796 17,2800 21,2804 
															19,2806 15,2802 15,2812 27,2812 27,2788 3,2788 3,2812 15,2812 15,2802 														"/>
													</defs>
													<clipPath id="SVGID_2_">
														<use xlink:href="#SVGID_1_"  overflow="visible"/>
													</clipPath>
													<circle clip-path="url(#SVGID_2_)" fill="#CCCCCC" cx="15" cy="2800" r="12"/>
												</g>
											</g>
										</g>
									</g>
								</g>
							</g>
						</g>
					</g>
				</g>
			</g>
		</g>
	</g>
	<g id="colour_swatch_selected_plp">
		<circle fill="#8F8F8E" cx="13.5" cy="2843.5" r="13.5"/>
		<polyline fill="none" stroke="#FFFFFF" stroke-width="2" stroke-miterlimit="10" points="20,2837.6 12,2847 6.5,2841.8 		"/>
	</g>
	<g id="colour_swatch_selector_plp">
		<path fill="#FF0FBE" d="M9.5,2879.9l-7.5-6.1c1.7-2.3,4.4-3.7,7.1-3.8L9.5,2879.9z"/>
		<path fill="#28BCBD" d="M9.5,2879.9l7.6-6.1c-1.7-2.3-4.4-3.7-7.1-3.8L9.5,2879.9z"/>
		<path fill="#FFDD00" d="M9.4,2879.9l-9.1,2.7c-0.8-2.8-0.3-5.8,1.3-8.2L9.4,2879.9z"/>
		<path fill="#137AF2" d="M9.5,2879.9l9.2,2.7c0.8-2.8,0.3-5.8-1.3-8.2L9.5,2879.9z"/>
	</g>
	<g id="colour_swatch_open_plp">
		<g>
			<rect y="2904.5" fill="#254571" width="10" height="1"/>
			<rect y="2904.5" fill="#254571" width="10" height="1"/>
			<rect x="4.5" y="2900" fill="#254571" width="1" height="10"/>
		</g>
	</g>
	<g id="colour_swatch_close_plp">
		
			<rect x="-1.5" y="2934.2" transform="matrix(0.7072 -0.707 0.707 0.7072 -2073.5574 862.7018)" fill="#254571" width="12.6" height="1.3"/>
		
			<rect x="-1.5" y="2934.2" transform="matrix(0.7072 -0.707 0.707 0.7072 -2073.5574 862.7018)" fill="#254571" width="12.6" height="1.3"/>
		
			<rect x="4.3" y="2928.6" transform="matrix(0.7069 -0.7073 0.7073 0.7069 -2074.3948 863.6876)" fill="#254571" width="1.3" height="12.6"/>
	</g>
	<g id="bloomreach_zoom_in">
		<g>
			<path fill="#979797" d="M12,2976.5c3,0,5.5,2.5,5.5,5.5s-2.5,5.5-5.5,5.5s-5.5-2.5-5.5-5.5S9,2976.5,12,2976.5 M12,2975
				c-3.9,0-7,3.1-7,7s3.1,7,7,7s7-3.1,7-7S15.9,2975,12,2975L12,2975z"/>
		</g>
		<rect x="8.5" y="2981.3" fill="#979797" width="7" height="1.5"/>
		<rect x="11.3" y="2978.5" fill="#979797" width="1.5" height="7"/>
		
			<line fill="none" stroke="#979797" stroke-width="1.5" stroke-linecap="round" stroke-linejoin="round" stroke-miterlimit="10" x1="16.5" y1="2986.8" x2="22.4" y2="2992.7"/>
	</g>
	<g id="x_black">
		<path fill="#010202" d="M15.8,3035.1l8.8-8.8c0.1-0.1,0.2-0.3,0.2-0.5s-0.1-0.3-0.2-0.5c-0.3-0.3-0.7-0.3-0.9,0l-8.8,8.9l-8.8-8.8
			c-0.3-0.3-0.7-0.3-0.9,0c-0.1,0.1-0.2,0.3-0.2,0.5s0.1,0.3,0.2,0.5l8.8,8.8l-8.8,8.8c-0.1,0-0.2,0.1-0.2,0.3s0.1,0.3,0.2,0.5
			c0.1,0.1,0.3,0.2,0.5,0.2s0.3-0.1,0.5-0.2l8.8-8.8l8.8,8.8c0.1,0.1,0.3,0.2,0.5,0.2c0.1,0,0.3-0.1,0.5-0.2
			c0.1-0.1,0.2-0.3,0.2-0.5s-0.1-0.3-0.2-0.5L15.8,3035.1z"/>
	</g>
	<g id="x_white">
		<path fill="#FFFFFF" d="M15.8,3085.1l8.8-8.8c0.1-0.1,0.2-0.3,0.2-0.5s-0.1-0.3-0.2-0.5c-0.3-0.3-0.7-0.3-0.9,0l-8.8,8.9l-8.8-8.8
			c-0.3-0.3-0.7-0.3-0.9,0c-0.1,0.1-0.2,0.3-0.2,0.5s0.1,0.3,0.2,0.5l8.8,8.8l-8.8,8.8c-0.1,0-0.2,0.1-0.2,0.3s0.1,0.3,0.2,0.5
			c0.1,0.1,0.3,0.2,0.5,0.2s0.3-0.1,0.5-0.2l8.8-8.8l8.8,8.8c0.1,0.1,0.3,0.2,0.5,0.2c0.1,0,0.3-0.1,0.5-0.2
			c0.1-0.1,0.2-0.3,0.2-0.5s-0.1-0.3-0.2-0.5L15.8,3085.1z"/>
	</g>
	<g id="round_minus">
		<path fill="#010202" d="M15,3125c-5.5,0-10,4.5-10,10s4.5,10,10,10s10-4.5,10-10S20.5,3125,15,3125z M15,3143.8
			c-4.8,0-8.8-3.9-8.8-8.8s3.9-8.8,8.8-8.8s8.8,3.9,8.8,8.8S19.8,3143.8,15,3143.8z"/>
		<path fill="#010202" d="M20.3,3134.4H9.7c-0.4,0-0.6,0.3-0.6,0.6s0.3,0.6,0.6,0.6h10.6c0.4,0,0.6-0.3,0.6-0.6
			S20.7,3134.4,20.3,3134.4z"/>
	</g>
	<g id="round_plus">
		<path fill="#010202" d="M15,3175c-5.5,0-10,4.5-10,10s4.5,10,10,10s10-4.5,10-10S20.5,3175,15,3175z M15,3193.8
			c-4.8,0-8.8-3.9-8.8-8.8s3.9-8.8,8.8-8.8s8.8,3.9,8.8,8.8S19.8,3193.8,15,3193.8z"/>
		<path fill="#010202" d="M20.3,3184.4h-4.7v-4.7c0-0.4-0.3-0.6-0.6-0.6s-0.6,0.3-0.6,0.6v4.7H9.7c-0.4,0-0.6,0.3-0.6,0.6
			s0.3,0.6,0.6,0.6h4.7v4.7c0,0.4,0.3,0.6,0.6,0.6s0.6-0.3,0.6-0.6v-4.7h4.7c0.4,0,0.6-0.3,0.6-0.6S20.7,3184.4,20.3,3184.4z"/>
	</g>
	<g id="phone">
		<path fill="#FFFFFF" d="M25,3239.8c-0.1-0.3-0.5-0.7-1.3-1.1c-0.2-0.1-0.4-0.3-0.7-0.4c-0.3-0.1-0.6-0.3-0.8-0.5
			c-0.3-0.1-0.5-0.3-0.7-0.4l-0.3-0.2c-0.2-0.1-0.4-0.3-0.5-0.3c-0.6-0.3-1.1-0.2-1.8,0.4c-0.3,0.3-0.5,0.6-0.8,0.9
			c-0.2,0.3-0.4,0.5-0.7,0.7c-0.1,0.1-0.1,0.1-0.2,0.1l0,0c-0.1,0-0.1-0.1-0.2-0.1s-0.1-0.1-0.3-0.1c-0.2-0.1-0.3-0.1-0.3-0.1
			c-1.1-0.7-2.1-1.4-3-2.2c-0.8-0.8-1.5-1.8-2.2-2.9l0,0c0-0.1-0.1-0.1-0.1-0.2v-0.1c-0.1-0.1-0.1-0.2-0.1-0.3s-0.1-0.1-0.1-0.2l0,0
			c0-0.1,0.1-0.1,0.1-0.2c0.2-0.2,0.5-0.5,0.7-0.7c0.3-0.3,0.6-0.5,0.9-0.8c0.4-0.4,0.5-0.7,0.5-1.1c0-0.2-0.1-0.5-0.1-0.7
			c-0.1-0.1-0.2-0.3-0.3-0.5c-0.1-0.1-0.2-0.3-0.2-0.3c-0.1-0.2-0.3-0.4-0.4-0.7c-0.1-0.3-0.3-0.5-0.5-0.8s-0.3-0.5-0.4-0.7
			c-0.4-0.9-0.7-1.2-1.1-1.3c-0.4-0.1-0.9-0.1-1.6,0.1c-0.5,0.1-0.8,0.1-1.1,0.3c-0.6,0.3-1.1,0.9-1.7,1.9c-0.5,0.9-0.7,1.9-0.7,2.7
			c0,0.3,0,0.5,0.1,0.8s0.1,0.5,0.2,0.9c0.1,0.3,0.1,0.5,0.2,0.7c0.1,0.1,0.1,0.4,0.3,0.7c0.1,0.3,0.2,0.5,0.3,0.7
			c0.3,0.9,0.7,1.7,1.1,2.5c0.7,1.2,1.7,2.4,2.9,3.6c1.3,1.3,2.5,2.2,3.6,2.9c0.7,0.5,1.5,0.9,2.5,1.2c0.1,0,0.3,0.1,0.6,0.2
			c0.3,0.1,0.6,0.2,0.7,0.3s0.4,0.1,0.7,0.2c0.3,0.1,0.6,0.1,0.9,0.2s0.5,0.1,0.8,0.1c0.9,0,1.9-0.3,2.8-0.7
			c1.1-0.6,1.7-1.1,1.9-1.7c0.1-0.3,0.2-0.6,0.3-1c0.1-0.5,0.1-0.8,0.1-1.1C25.1,3240.1,25.1,3240,25,3239.8z M23.6,3241.1
			c-0.1,0.3-0.1,0.6-0.3,0.8c-0.1,0.1-0.3,0.5-1.3,1.1c-0.9,0.5-1.9,0.7-2.7,0.5c-0.2,0-0.4-0.1-0.7-0.1c-0.3-0.1-0.5-0.1-0.6-0.2
			c-0.1-0.1-0.4-0.1-0.7-0.3c-0.4-0.1-0.6-0.2-0.7-0.3c-0.8-0.3-1.5-0.7-2.2-1.1c-1.1-0.7-2.2-1.6-3.4-2.7c-1.1-1.1-2.1-2.3-2.7-3.4
			c-0.4-0.7-0.7-1.4-1.1-2.2c0-0.1-0.1-0.3-0.3-0.7c-0.1-0.3-0.2-0.6-0.3-0.7c-0.1-0.1-0.1-0.3-0.2-0.6s-0.1-0.5-0.1-0.7
			c0.1-0.1,0.1-0.3,0.1-0.5c0-0.7,0.2-1.4,0.6-2.1c0.6-1,0.9-1.3,1.1-1.3c0.2-0.1,0.5-0.1,0.8-0.3c0.3,0,0.6-0.1,0.8-0.1
			c0.1,0.1,0.2,0.3,0.4,0.7c0.1,0.1,0.2,0.4,0.4,0.7s0.3,0.6,0.5,0.9c0.1,0.3,0.3,0.5,0.4,0.7c0,0,0,0.1,0.1,0.1
			c0,0,0.1,0.1,0.2,0.3c0.1,0.1,0.2,0.3,0.3,0.4v0.1c0,0.1-0.1,0.1-0.2,0.3c-0.2,0.3-0.5,0.5-0.7,0.7c-0.3,0.3-0.6,0.5-0.9,0.7
			c-0.3,0.3-0.6,0.6-0.6,1.1c0,0.1,0.1,0.3,0.1,0.5c0.1,0.1,0.1,0.3,0.1,0.3c0.1,0.1,0.1,0.2,0.2,0.3l0.1,0.1v0.1
			c0.7,1.3,1.5,2.3,2.4,3.3c0.9,0.9,2,1.7,3.3,2.4c0,0,0.1,0.1,0.2,0.1c0.2,0.1,0.3,0.2,0.3,0.2c0.1,0.1,0.2,0.1,0.3,0.1
			c0.2,0.1,0.4,0.1,0.5,0.1c0.5,0,0.9-0.3,1.1-0.6c0.3-0.3,0.5-0.6,0.7-0.9s0.4-0.5,0.7-0.7c0.1-0.1,0.2-0.2,0.2-0.2h0.1
			c0.1,0.1,0.2,0.1,0.4,0.2l0.3,0.2c0,0,0.1,0,0.1,0.1c0.2,0.1,0.5,0.3,0.7,0.4s0.5,0.3,0.9,0.5c0.3,0.1,0.5,0.3,0.7,0.4
			c0.4,0.2,0.6,0.3,0.7,0.4C23.8,3240.5,23.8,3240.7,23.6,3241.1z"/>
	</g>
	<g id="round_tick">
		<path fill="#010202" d="M25.6,3274.4c-2.8-2.8-6.6-4.4-10.6-4.4s-7.8,1.6-10.6,4.4C1.6,3277.2,0,3281,0,3285s1.6,7.8,4.4,10.6
			S11,3300,15,3300s7.8-1.6,10.6-4.4c2.8-2.8,4.4-6.6,4.4-10.6S28.4,3277.2,25.6,3274.4z M24.3,3294.3c-2.4,2.4-5.8,3.8-9.3,3.8
			s-6.8-1.4-9.3-3.8c-2.5-2.4-3.8-5.8-3.8-9.3s1.4-6.8,3.8-9.3s5.8-3.8,9.3-3.8s6.8,1.4,9.3,3.8c2.5,2.4,3.8,5.8,3.8,9.3
			S26.7,3291.8,24.3,3294.3z"/>
		<path fill="#010202" d="M22.5,3278.9L12.4,3289l-4.9-4.9c-0.4-0.4-0.9-0.4-1.3,0c-0.4,0.4-0.4,0.9,0,1.3l5.5,5.5
			c0.2,0.2,0.4,0.3,0.7,0.3s0.5-0.1,0.7-0.3l10.8-10.8c0.4-0.4,0.4-0.9,0-1.3S22.9,3278.5,22.5,3278.9z"/>
	</g>
	<g id="warining">
		<g>
			<path fill="#010202" d="M35,3356l-14.7-24.6c-0.5-0.9-1.4-1.4-2.3-1.4s-1.8,0.5-2.3,1.4L1,3356c-0.5,0.8-0.5,1.8,0,2.7
				c0.5,0.8,1.4,1.3,2.5,1.3h29.2c1,0,1.8-0.5,2.4-1.4C35.4,3357.8,35.4,3356.8,35,3356z M33,3357.5c0,0.1-0.1,0.2-0.3,0.2H3.5
				c-0.2,0-0.3-0.1-0.3-0.2s-0.1-0.2,0-0.3l14.5-24.7c0.1-0.2,0.2-0.2,0.3-0.2s0.2,0,0.3,0.2l14.7,24.6
				C33,3357.2,33,3357.5,33,3357.5z"/>
			<ellipse fill="#010202" cx="18" cy="3354.1" rx="1.2" ry="1.2"/>
			<path fill="#010202" d="M18,3337.8c-1,0-2,0.8-2,2l0.8,9.9c0,0.7,0.6,1.2,1.2,1.2s1.2-0.5,1.2-1.2l0.8-9.9
				C20,3338.7,19,3337.8,18,3337.8z"/>
		</g>
	</g>
	<g id="collection_outline_pink">
		<path fill="#E51D9B" d="M15,3393c-8.3,0-15,6.7-15,15s6.7,15,15,15s15-6.7,15-15S23.3,3393,15,3393z M15,3421c-7.2,0-13-5.8-13-13
			s5.8-13,13-13s13,5.8,13,13S22.2,3421,15,3421z"/>
		<path fill="#E51D9B" d="M21.6,3398.9c-1.3-0.9-2.8-1.4-4.4-1.4c-2.4,0-4.7,1.2-6.1,3.1l-4.4,6.1c-2.4,3.4-1.7,8.1,1.7,10.5
			c1.3,0.9,2.8,1.4,4.4,1.4c2.4,0,4.7-1.2,6.1-3.1l4.4-6.1C25.7,3406,24.9,3401.3,21.6,3398.9z M21.7,3408.2l-4.4,6.1
			c-1,1.4-2.7,2.3-4.5,2.3c-1.2,0-2.3-0.4-3.2-1c-2.5-1.8-3-5.2-1.2-7.7l4.4-6.1c1-1.4,2.7-2.3,4.5-2.3c1.2,0,2.3,0.4,3.2,1
			C22.9,3402.3,23.4,3405.7,21.7,3408.2z"/>
		<path fill="#E51D9B" d="M17.5,3402.9l-1.6,2.2c-0.3,0.5-0.2,1.1,0.2,1.4c0.4,0.3,1.1,0.2,1.4-0.2l1.6-2.2c0.3-0.5,0.2-1.1-0.2-1.4
			S17.8,3402.4,17.5,3402.9z"/>
	</g>
	<g id="collection_white">
		<path d="M15,3448c-8.3,0-15,6.7-15,15s6.7,15,15,15s15-6.7,15-15S23.3,3448,15,3448z M15,3476c-7.2,0-13-5.8-13-13s5.8-13,13-13
			s13,5.8,13,13S22.2,3476,15,3476z"/>
		<path d="M21.6,3453.9c-1.3-0.9-2.8-1.4-4.4-1.4c-2.4,0-4.7,1.2-6.1,3.1l-4.4,6.1c-2.4,3.4-1.7,8.1,1.7,10.5
			c1.3,0.9,2.8,1.4,4.4,1.4c2.4,0,4.7-1.2,6.1-3.1l4.4-6.1C25.7,3461,24.9,3456.3,21.6,3453.9z M21.7,3463.2l-4.4,6.1
			c-1,1.4-2.7,2.3-4.5,2.3c-1.2,0-2.3-0.4-3.2-1c-2.5-1.8-3-5.2-1.2-7.7l4.4-6.1c1-1.4,2.7-2.3,4.5-2.3c1.2,0,2.3,0.4,3.2,1
			C22.9,3457.3,23.4,3460.7,21.7,3463.2z"/>
		<path d="M17.5,3457.9l-1.6,2.2c-0.3,0.5-0.2,1.1,0.2,1.4c0.4,0.3,1.1,0.2,1.4-0.2l1.6-2.2c0.3-0.5,0.2-1.1-0.2-1.4
			S17.8,3457.4,17.5,3457.9z"/>
	</g>
	<g id="delivery_pink">
		<path fill="#E51D9B" d="M15,3503c-8.3,0-15,6.7-15,15s6.7,15,15,15s15-6.7,15-15S23.3,3503,15,3503z M15,3531c-7.2,0-13-5.8-13-13
			s5.8-13,13-13s13,5.8,13,13S22.2,3531,15,3531z"/>
		<path fill="#E51D9B" d="M24.2,3517.3l-1.4-1l-1-1.7c-0.3-0.5-0.8-0.8-1.4-0.9h-2.8c-0.2-0.7-0.8-1.2-1.6-1.2H6.6
			c-0.9,0-1.6,0.7-1.6,1.6v7.1c0,0.8,0.6,1.4,1.3,1.6c0.2,1.6,1.6,2.9,3.2,2.9s3-1.2,3.2-2.8H16c0.2,0,0.5-0.1,0.7-0.2
			c0.2,0.1,0.3,0.1,0.5,0.1c0.2,1.6,1.6,2.9,3.2,2.9c1.7,0,3.1-1.3,3.2-2.9c0.5-0.2,0.9-0.7,1-1.3l0.2-2.8
			C24.9,3518.1,24.7,3517.6,24.2,3517.3z M20.2,3515.8l1.1,2l1.6,1.1l-0.1,1.3c-0.6-0.6-1.4-1-2.3-1c-1.1,0-2.1,0.6-2.7,1.4v-4.8
			H20.2z M9.6,3523.7c-0.7,0-1.3-0.6-1.3-1.3s0.6-1.3,1.3-1.3s1.3,0.6,1.3,1.3C10.9,3523.1,10.3,3523.7,9.6,3523.7z M15.7,3520.9
			h-3.3c-0.6-1-1.6-1.7-2.9-1.7c-1,0-1.9,0.5-2.5,1.2v-5.8h8.6L15.7,3520.9L15.7,3520.9z M20.5,3523.7c-0.7,0-1.3-0.6-1.3-1.3
			s0.6-1.3,1.3-1.3c0.7,0,1.3,0.6,1.3,1.3C21.8,3523.1,21.2,3523.7,20.5,3523.7z"/>
	</g>
	<g id="delivery_white">
		<path d="M15,3558c-8.3,0-15,6.7-15,15s6.7,15,15,15s15-6.7,15-15S23.3,3558,15,3558z M15,3586c-7.2,0-13-5.8-13-13s5.8-13,13-13
			s13,5.8,13,13S22.2,3586,15,3586z"/>
		<path d="M24.2,3572.3l-1.4-1l-1-1.7c-0.3-0.5-0.8-0.8-1.4-0.9h-2.8c-0.2-0.7-0.8-1.2-1.6-1.2H6.6c-0.9,0-1.6,0.7-1.6,1.6v7.1
			c0,0.8,0.6,1.4,1.3,1.6c0.2,1.6,1.6,2.9,3.2,2.9s3-1.2,3.2-2.8H16c0.2,0,0.5-0.1,0.7-0.2c0.2,0.1,0.3,0.1,0.5,0.1
			c0.2,1.6,1.6,2.9,3.2,2.9c1.7,0,3.1-1.3,3.2-2.9c0.5-0.2,0.9-0.7,1-1.3l0.2-2.8C24.9,3573.1,24.7,3572.6,24.2,3572.3z
			 M20.2,3570.8l1.1,2l1.6,1.1l-0.1,1.3c-0.6-0.6-1.4-1-2.3-1c-1.1,0-2.1,0.6-2.7,1.4v-4.8H20.2z M9.6,3578.7
			c-0.7,0-1.3-0.6-1.3-1.3s0.6-1.3,1.3-1.3s1.3,0.6,1.3,1.3C10.9,3578.1,10.3,3578.7,9.6,3578.7z M15.7,3575.9h-3.3
			c-0.6-1-1.6-1.7-2.9-1.7c-1,0-1.9,0.5-2.5,1.2v-5.8h8.6L15.7,3575.9L15.7,3575.9z M20.5,3578.7c-0.7,0-1.3-0.6-1.3-1.3
			s0.6-1.3,1.3-1.3c0.7,0,1.3,0.6,1.3,1.3C21.8,3578.1,21.2,3578.7,20.5,3578.7z"/>
	</g>
	<g id="expand">
		<g>
			<rect x="10" y="3650" width="20" height="1"/>
			<rect x="20" y="3640" width="1" height="20"/>
		</g>
	</g>
	<g id="collapse">
		<g>
			<rect x="10" y="3710" width="20" height="1"/>
		</g>
	</g>
	<g id="info">
		<g>
			<path d="M9.3,3763.5c0.5,0.8,0.7,1.6,0.7,2.5s-0.2,1.7-0.7,2.5c-0.4,0.8-1,1.4-1.8,1.8c-0.8,0.5-1.6,0.7-2.5,0.7
				s-1.7-0.2-2.5-0.7c-0.8-0.4-1.4-1-1.8-1.8S0,3766.9,0,3766s0.2-1.7,0.7-2.5s1.1-1.4,1.8-1.8c0.7-0.4,1.6-0.7,2.5-0.7
				s1.7,0.2,2.5,0.7C8.3,3762.1,8.9,3762.7,9.3,3763.5z M6.7,3769.1v-1c0-0.1,0-0.1-0.1-0.1c0,0-0.1-0.1-0.2-0.1H5.8v-3.4
				c0-0.1,0-0.1-0.1-0.2l-0.1-0.1H3.5c-0.1,0-0.1,0-0.1,0.1c0,0-0.1,0.1-0.1,0.2v1c0,0.1,0,0.1,0.1,0.2l0.1,0.1h0.6v2.1H3.5
				c-0.1,0-0.1,0-0.1,0.1l-0.1,0.1v1c0,0.1,0,0.1,0.1,0.1l0.1,0.1h2.9C6.5,3769.3,6.5,3769.3,6.7,3769.1
				C6.6,3769.2,6.7,3769.2,6.7,3769.1z M5.8,3763.3v-1c0-0.1,0-0.1-0.1-0.1s0-0.2-0.1-0.2H4.4c-0.1,0-0.1,0-0.2,0.1s0,0.1,0,0.1v1
				c0,0.1,0,0.1,0.1,0.1c0,0,0.1,0.1,0.2,0.1L5.8,3763.3C5.9,3763.4,5.9,3763.4,5.8,3763.3C5.8,3763.4,5.8,3763.4,5.8,3763.3z"/>
		</g>
	</g>
	<g id="big_info">
		<g>
			<path d="M15,3800c-8.3,0-15,6.7-15,15s6.7,15,15,15s15-6.7,15-15S23.3,3800,15,3800z M15,3828c-7.2,0-13-5.8-13-13s5.8-13,13-13
				s13,5.8,13,13S22.2,3828,15,3828z"/>
			<path d="M16,3809.8h-2c-0.6,0-1,0.4-1,1s0.4,1,1,1h1v10.8c0,0.6,0.4,1,1,1s1-0.4,1-1v-11.8C17,3810.2,16.5,3809.8,16,3809.8z"/>
			<ellipse cx="15.2" cy="3807.2" rx="1.2" ry="1.2"/>
		</g>
	</g>
	<g id="collection_white_1_">
		<path fill="#FFFFFF" d="M15,3855c-8.3,0-15,6.7-15,15s6.7,15,15,15s15-6.7,15-15S23.3,3855,15,3855z M15,3883c-7.2,0-13-5.8-13-13
			s5.8-13,13-13s13,5.8,13,13S22.2,3883,15,3883z"/>
		<path fill="#FFFFFF" d="M21.6,3860.9c-1.3-0.9-2.8-1.4-4.4-1.4c-2.4,0-4.7,1.2-6.1,3.1l-4.4,6.1c-2.4,3.4-1.7,8.1,1.7,10.5
			c1.3,0.9,2.8,1.4,4.4,1.4c2.4,0,4.7-1.2,6.1-3.1l4.4-6.1C25.7,3868,24.9,3863.3,21.6,3860.9z M21.7,3870.2l-4.4,6.1
			c-1,1.4-2.7,2.3-4.5,2.3c-1.2,0-2.3-0.4-3.2-1c-2.5-1.8-3-5.2-1.2-7.7l4.4-6.1c1-1.4,2.7-2.3,4.5-2.3c1.2,0,2.3,0.4,3.2,1
			C22.9,3864.3,23.4,3867.7,21.7,3870.2z"/>
		<path fill="#FFFFFF" d="M17.5,3864.9l-1.6,2.2c-0.3,0.5-0.2,1.1,0.2,1.4s1.1,0.2,1.4-0.2l1.6-2.2c0.3-0.5,0.2-1.1-0.2-1.4
			S17.8,3864.4,17.5,3864.9z"/>
	</g>
	<g id="delivery_white_1_">
		<path fill="#FFFFFF" d="M15,3910c-8.3,0-15,6.7-15,15s6.7,15,15,15s15-6.7,15-15S23.3,3910,15,3910z M15,3938c-7.2,0-13-5.8-13-13
			s5.8-13,13-13s13,5.8,13,13S22.2,3938,15,3938z"/>
		<path fill="#FFFFFF" d="M24.2,3924.3l-1.4-1l-1-1.7c-0.3-0.5-0.8-0.8-1.4-0.9h-2.8c-0.2-0.7-0.8-1.2-1.6-1.2H6.6
			c-0.9,0-1.6,0.7-1.6,1.6v7.1c0,0.8,0.6,1.4,1.3,1.6c0.2,1.6,1.6,2.9,3.2,2.9s3-1.2,3.2-2.8H16c0.2,0,0.5-0.1,0.7-0.2
			c0.2,0.1,0.3,0.1,0.5,0.1c0.2,1.6,1.6,2.9,3.2,2.9c1.7,0,3.1-1.3,3.2-2.9c0.5-0.2,0.9-0.7,1-1.3l0.2-2.8
			C24.9,3925.1,24.7,3924.6,24.2,3924.3z M20.2,3922.8l1.1,2l1.6,1.1l-0.1,1.3c-0.6-0.6-1.4-1-2.3-1c-1.1,0-2.1,0.6-2.7,1.4v-4.8
			H20.2z M9.6,3930.7c-0.7,0-1.3-0.6-1.3-1.3c0-0.7,0.6-1.3,1.3-1.3s1.3,0.6,1.3,1.3C10.9,3930.1,10.3,3930.7,9.6,3930.7z
			 M15.7,3927.9h-3.3c-0.6-1-1.6-1.7-2.9-1.7c-1,0-1.9,0.5-2.5,1.2v-5.8h8.6L15.7,3927.9L15.7,3927.9z M20.5,3930.7
			c-0.7,0-1.3-0.6-1.3-1.3c0-0.7,0.6-1.3,1.3-1.3c0.7,0,1.3,0.6,1.3,1.3C21.8,3930.1,21.2,3930.7,20.5,3930.7z"/>
	</g>
	<g id="chevron_right">
		<path fill="#000000" d="M10.5,3975c-0.1,0-0.2,0-0.3-0.1c-0.2-0.2-0.2-0.5,0-0.7l6.7-6.7l-6.7-6.7c-0.2-0.2-0.2-0.5,0-0.7
			c0.2-0.2,0.5-0.2,0.7,0l7,7c0.1,0.1,0.1,0.2,0.1,0.3s0,0.2-0.1,0.3l-7,7C10.7,3975,10.6,3975,10.5,3975z"/>
	</g>
	<g id="chevron_left">
		<path fill="#000000" d="M17.5,4005.2c-0.1,0-0.3-0.1-0.4-0.1l-7-7c-0.2-0.2-0.2-0.5,0-0.7l7-7c0.2-0.2,0.5-0.2,0.7,0
			c0.2,0.2,0.2,0.5,0,0.7l-6.7,6.6l6.7,6.6c0.2,0.2,0.2,0.5,0,0.7C17.8,4005.2,17.6,4005.2,17.5,4005.2z"/>
	</g>
</g>
</svg>
