<?xml version="1.0" encoding="UTF-8" standalone="no"?>
<!-- Created with Inkscape (http://www.inkscape.org/) -->

<svg
   xmlns:dc="http://purl.org/dc/elements/1.1/"
   xmlns:cc="http://creativecommons.org/ns#"
   xmlns:rdf="http://www.w3.org/1999/02/22-rdf-syntax-ns#"
   xmlns:svg="http://www.w3.org/2000/svg"
   xmlns="http://www.w3.org/2000/svg"
   xmlns:sodipodi="http://sodipodi.sourceforge.net/DTD/sodipodi-0.dtd"
   xmlns:inkscape="http://www.inkscape.org/namespaces/inkscape"
   width="22"
   height="22"
   viewBox="0 0 22 22"
   id="svg3886"
   version="1.1"
   inkscape:version="0.91 r13725"
   sodipodi:docname="pink-login.svg">
  <defs
     id="defs3888" />
  <sodipodi:namedview
     id="base"
     pagecolor="#ffffff"
     bordercolor="#666666"
     borderopacity="1.0"
     inkscape:pageopacity="0.0"
     inkscape:pageshadow="2"
     inkscape:zoom="5.6"
     inkscape:cx="22.142857"
     inkscape:cy="48.214272"
     inkscape:document-units="px"
     inkscape:current-layer="layer1"
     showgrid="false"
     units="px"
     inkscape:window-width="1920"
     inkscape:window-height="1137"
     inkscape:window-x="-8"
     inkscape:window-y="-8"
     inkscape:window-maximized="1" />
  <metadata
     id="metadata3891">
    <rdf:RDF>
      <cc:Work
         rdf:about="">
        <dc:format>image/svg+xml</dc:format>
        <dc:type
           rdf:resource="http://purl.org/dc/dcmitype/StillImage" />
        <dc:title></dc:title>
      </cc:Work>
    </rdf:RDF>
  </metadata>
  <g
     inkscape:label="Layer 1"
     inkscape:groupmode="layer"
     id="layer1"
     transform="translate(0,-1030.3622)">
    <path
       d="m 11.4,1031.3622 c 1.9,0 3.1,0.6 3.9,1.9 0.7,1.3 1.2,2.4 1.3,3.4 0.2,1.2 0.1,2.3 -0.2,3.7 -0.3,1.3 -0.9,2.4 -1.8,3.2 -0.3,0.2 -0.4,0.4 -0.4,0.5 0,0.1 0.2,0.3 0.4,0.4 0.1,0 0.5,0.2 1.3,0.4 0.8,0.2 1.7,0.5 2.5,0.9 0.7,0.3 1.3,0.7 1.8,1.3 0.4,0.6 0.7,1.3 0.7,2.1 l 0,2.2 c -1.3,0 -2.6,0 -3.6,0 -1,0 -2.2,0 -3.3,0 -1.1,0 -2.2,0 -3.2,0 -1,0 -2.1,0 -3.2,0 -1.1,0 -2.2,0 -3.2,0 -1,0 -2,0 -3.3,0 l 0,-2.1 c 0,-0.8 0.3,-1.4 0.7,-2.1 0.4,-0.6 1.1,-1.1 1.8,-1.3 0.9,-0.4 1.7,-0.6 2.6,-0.9 0.9,-0.3 1.3,-0.4 1.4,-0.5 0.3,-0.2 0.4,-0.3 0.4,-0.4 0,-0.2 -0.1,-0.4 -0.4,-0.5 -0.9,-0.8 -1.5,-1.9 -1.8,-3.2 -0.3,-1.3 -0.4,-2.5 -0.2,-3.7 0.2,-1 0.6,-2.1 1.3,-3.3 0.7,-1.2 2.3,-2 4.2,-2 l 0.3,0 z"
       id="path23"
       inkscape:connector-curvature="0"
       style="fill:#e51d9b" />
  </g>
</svg>
