<?xml version="1.0" encoding="UTF-8" standalone="no"?>
<!-- Created with Inkscape (http://www.inkscape.org/) -->

<svg
   xmlns:dc="http://purl.org/dc/elements/1.1/"
   xmlns:cc="http://creativecommons.org/ns#"
   xmlns:rdf="http://www.w3.org/1999/02/22-rdf-syntax-ns#"
   xmlns:svg="http://www.w3.org/2000/svg"
   xmlns="http://www.w3.org/2000/svg"
   xmlns:sodipodi="http://sodipodi.sourceforge.net/DTD/sodipodi-0.dtd"
   xmlns:inkscape="http://www.inkscape.org/namespaces/inkscape"
   width="22"
   height="22"
   viewBox="0 0 22 22"
   id="svg3886"
   version="1.1"
   inkscape:version="0.91 r13725"
   sodipodi:docname="pink-handbag.svg">
  <defs
     id="defs3888" />
  <sodipodi:namedview
     id="base"
     pagecolor="#ffffff"
     bordercolor="#666666"
     borderopacity="1.0"
     inkscape:pageopacity="0.0"
     inkscape:pageshadow="2"
     inkscape:zoom="5.6"
     inkscape:cx="0.089285571"
     inkscape:cy="48.214272"
     inkscape:document-units="px"
     inkscape:current-layer="layer1"
     showgrid="false"
     units="px"
     inkscape:window-width="1920"
     inkscape:window-height="1137"
     inkscape:window-x="-8"
     inkscape:window-y="-8"
     inkscape:window-maximized="1" />
  <metadata
     id="metadata3891">
    <rdf:RDF>
      <cc:Work
         rdf:about="">
        <dc:format>image/svg+xml</dc:format>
        <dc:type
           rdf:resource="http://purl.org/dc/dcmitype/StillImage" />
        <dc:title />
      </cc:Work>
    </rdf:RDF>
  </metadata>
  <g
     inkscape:label="Layer 1"
     inkscape:groupmode="layer"
     id="layer1"
     transform="translate(0,-1030.3622)">
    <path
       d="m 21.000001,1050.5622 -0.7,-13.6 c 0,-0.3 -0.3,-0.6 -0.6,-0.6 l -3,0 c -0.3,-2.8 -2.7,-5 -5.5,-5 -2.8000005,0 -5.2000005,2.2 -5.5000005,5 l -3.2,0 c -0.300001,0 -0.6000011,0.3 -0.6000011,0.6 l -0.9,13.7 c 0,0.2 0.1,0.3 0.2,0.5 0.1,0.2 0.3,0.2 0.5,0.2 l 18.7000016,0 0,0 c 0.4,0 0.6,-0.3 0.6,-0.6 0,-0.1 0,-0.2 0,-0.2 z m -10,-18 c 2.2,0 3.9,1.6 4.3,3.8 l -8.5000005,0 c 0.3,-2.1 2,-3.8 4.2000005,-3.8 z"
       id="path17"
       inkscape:connector-curvature="0"
       style="fill:#e51d9b" />
  </g>
</svg>
