<?xml version="1.0" encoding="UTF-8" standalone="no"?>
<!-- Created with Inkscape (http://www.inkscape.org/) -->

<svg
   xmlns:dc="http://purl.org/dc/elements/1.1/"
   xmlns:cc="http://creativecommons.org/ns#"
   xmlns:rdf="http://www.w3.org/1999/02/22-rdf-syntax-ns#"
   xmlns:svg="http://www.w3.org/2000/svg"
   xmlns="http://www.w3.org/2000/svg"
   xmlns:sodipodi="http://sodipodi.sourceforge.net/DTD/sodipodi-0.dtd"
   xmlns:inkscape="http://www.inkscape.org/namespaces/inkscape"
   width="22"
   height="22"
   viewBox="0 0 22 22"
   id="svg3886"
   version="1.1"
   inkscape:version="0.91 r13725"
   sodipodi:docname="search.svg">
  <defs
     id="defs3888" />
  <sodipodi:namedview
     id="base"
     pagecolor="#ffffff"
     bordercolor="#666666"
     borderopacity="1.0"
     inkscape:pageopacity="0.0"
     inkscape:pageshadow="2"
     inkscape:zoom="5.6"
     inkscape:cx="22.142857"
     inkscape:cy="48.214272"
     inkscape:document-units="px"
     inkscape:current-layer="layer1"
     showgrid="false"
     units="px"
     inkscape:window-width="1920"
     inkscape:window-height="1137"
     inkscape:window-x="-8"
     inkscape:window-y="-8"
     inkscape:window-maximized="1" />
  <metadata
     id="metadata3891">
    <rdf:RDF>
      <cc:Work
         rdf:about="">
        <dc:format>image/svg+xml</dc:format>
        <dc:type
           rdf:resource="http://purl.org/dc/dcmitype/StillImage" />
        <dc:title></dc:title>
      </cc:Work>
    </rdf:RDF>
  </metadata>
  <g
     inkscape:label="Layer 1"
     inkscape:groupmode="layer"
     id="layer1"
     transform="translate(0,-1030.3622)">
    <path
       d="m 8.351735,1031.648 c -4.1,0 -7.3,3.3 -7.3,7.5 0,4.2 3.3,7.5 7.3,7.5 4,0 7.3,-3.3 7.3,-7.5 0,-4.2 -3.3,-7.5 -7.3,-7.5 z m 0,13.6 c -3.3,0 -6,-2.7 -6,-6.1 0,-3.4 2.7,-6.1 6,-6.1 3.3,0 6,2.7 6,6.1 0,3.4 -2.7,6.1 -6,6.1 z"
       id="path34"
       inkscape:connector-curvature="0"
       style="fill:#010202" />
    <path
       d="m 20.851735,1050.548 -5.2,-5.3 c -0.3,-0.3 -0.7,-0.3 -0.9,0 -0.2,0.3 -0.3,0.7 0,0.9 l 5.2,5.3 c 0.1,0.1 0.3,0.2 0.5,0.2 0.2,0 0.3,-0.1 0.5,-0.2 0.2,-0.3 0.2,-0.7 -0.1,-0.9 z"
       id="path36"
       inkscape:connector-curvature="0"
       style="fill:#010202" />
  </g>
</svg>
