<?xml version="1.0" encoding="UTF-8" standalone="no"?>
<!-- Created with Inkscape (http://www.inkscape.org/) -->

<svg
   xmlns:dc="http://purl.org/dc/elements/1.1/"
   xmlns:cc="http://creativecommons.org/ns#"
   xmlns:rdf="http://www.w3.org/1999/02/22-rdf-syntax-ns#"
   xmlns:svg="http://www.w3.org/2000/svg"
   xmlns="http://www.w3.org/2000/svg"
   xmlns:sodipodi="http://sodipodi.sourceforge.net/DTD/sodipodi-0.dtd"
   xmlns:inkscape="http://www.inkscape.org/namespaces/inkscape"
   width="22"
   height="22"
   viewBox="0 0 22 22"
   id="svg3886"
   version="1.1"
   inkscape:version="0.91 r13725"
   sodipodi:docname="white-login.svg">
  <defs
     id="defs3888" />
  <sodipodi:namedview
     id="base"
     pagecolor="#ffffff"
     bordercolor="#666666"
     borderopacity="1.0"
     inkscape:pageopacity="0.0"
     inkscape:pageshadow="2"
     inkscape:zoom="5.6"
     inkscape:cx="22.142857"
     inkscape:cy="48.214272"
     inkscape:document-units="px"
     inkscape:current-layer="layer1"
     showgrid="false"
     units="px"
     inkscape:window-width="1920"
     inkscape:window-height="1137"
     inkscape:window-x="-8"
     inkscape:window-y="-8"
     inkscape:window-maximized="1" />
  <metadata
     id="metadata3891">
    <rdf:RDF>
      <cc:Work
         rdf:about="">
        <dc:format>image/svg+xml</dc:format>
        <dc:type
           rdf:resource="http://purl.org/dc/dcmitype/StillImage" />
        <dc:title></dc:title>
      </cc:Work>
    </rdf:RDF>
  </metadata>
  <g
     inkscape:label="Layer 1"
     inkscape:groupmode="layer"
     id="layer1"
     transform="translate(0,-1030.3622)">
    <path
       d="m 11.4,1032.7622 c 1.5,0 3.4,0.7 3.9,4 0.3,1.9 -0.1,4.4 -1.5,5.6 -0.6,0.5 -0.9,1.1 -0.8,1.8 0.1,0.4 0.3,1.1 1.1,1.6 0.1,0.1 0.4,0.2 4.1,1.5 0.9,0.3 1.5,1.1 1.5,2 l 0,0.7 -8.8,0 c -2.8,0 -6.4,0 -8.4,0 l 0,-0.8 c 0,-0.9 0.6,-1.7 1.5,-2 3.9,-1.4 4.1,-1.4 4.3,-1.5 0.9,-0.5 1.1,-1.1 1.1,-1.6 0.1,-0.6 -0.2,-1.2 -0.8,-1.8 -1.4,-1.3 -1.8,-3.8 -1.5,-5.6 0.5,-3.2 2.4,-3.9 3.9,-3.9 l 0.4,0 m 0,-1.4 -0.5,0 c -3.8,0 -4.9,3.2 -5.3,5.2 -0.4,2.2 0.1,5.2 2,6.9 0.5,0.4 0.4,0.7 -0.1,1 -0.2,0.1 -2.3,0.8 -4,1.4 -1.5,0.5 -2.5,1.9 -2.5,3.4 l 0,2.1 c 0,0 5.9,0 9.9,0 3.9,0 10.1,0 10.1,0 l 0,-2.1 c 0,-1.5 -1,-2.9 -2.4,-3.4 -1.7,-0.6 -3.7,-1.3 -3.9,-1.4 -0.5,-0.3 -0.6,-0.6 -0.1,-1 1.9,-1.6 2.4,-4.6 2,-6.9 -0.3,-2 -1.5,-5.2 -5.2,-5.2 l 0,0 z"
       id="path29"
       inkscape:connector-curvature="0"
       style="fill:#ffffff" />
  </g>
</svg>
